<?xml version="1.0" encoding="UTF-8"?>
<svg width="80" height="80" viewBox="0 0 80 80" xmlns="http://www.w3.org/2000/svg">
  <defs>
    <!-- 하트 그라디언트: 분홍(#ec4899)에서 보라(#a855f7) -->
    <linearGradient id="heartGradient" x1="0" y1="0" x2="1" y2="1">
      <stop offset="0%" stop-color="#ec4899"/>
      <stop offset="100%" stop-color="#a855f7"/>
    </linearGradient>
    <!-- 벚꽃 그라디언트: 밝은 분홍(#FFC0CB)에서 진한 분홍(#FF69B4) -->
    <radialGradient id="blossomGradient" cx="50%" cy="50%" r="50%">
      <stop offset="0%" stop-color="#FFC0CB"/>
      <stop offset="100%" stop-color="#FF69B4"/>
    </radialGradient>
  </defs>
  
  <!-- 하트 모양 (연결과 온기를 상징) -->
  <path d="M40 70
    C15 55, 5 35, 5 20
    C5 10, 15 5, 25 10
    C35 15, 40 25, 40 25
    C40 25, 45 15, 55 10
    C65 5, 75 10, 75 20
    C75 35, 65 55, 40 70 Z" 
    fill="url(#heartGradient)"/>
  
  <!-- 하트 중앙에 배치된 벚꽃 (봄의 감성과 재회의 의미) -->
  <g transform="translate(40,30)">
     <circle cx="0" cy="0" r="3" fill="url(#blossomGradient)"/>
     <!-- 5개의 타원형 petal(꽃잎)을 시계방향으로 배치 -->
     <g transform="rotate(0)">
         <ellipse cx="0" cy="-7" rx="2" ry="4" fill="url(#blossomGradient)"/>
     </g>
     <g transform="rotate(72)">
         <ellipse cx="0" cy="-7" rx="2" ry="4" fill="url(#blossomGradient)"/>
     </g>
     <g transform="rotate(144)">
         <ellipse cx="0" cy="-7" rx="2" ry="4" fill="url(#blossomGradient)"/>
     </g>
     <g transform="rotate(216)">
         <ellipse cx="0" cy="-7" rx="2" ry="4" fill="url(#blossomGradient)"/>
     </g>
     <g transform="rotate(288)">
         <ellipse cx="0" cy="-7" rx="2" ry="4" fill="url(#blossomGradient)"/>
     </g>
  </g>
</svg>
